# xmcd
#
# Track frame offsets:
#	150
#	17748
#	36165
#	57705
#	70493
#	84013
#	95913
#	110175
#	127313
#	141190
#	155345
#
# Disc length: 2269 seconds
#
# Revision: 0
# Processed by: cddbd v1.5.1PL0 Copyright (c) Steve Scherf et al.
# Submitted via: dBpowerAMP V4.0
#
DISCID=a408db0b
DTITLE=Björnson - Äntligen
DYEAR=1990
DGENRE=Blues
TTITLE0=Riddare Av Sköna Ord
TTITLE1=Glöm Ej Drömmarna
TTITLE2=Sköna Stunder
TTITLE3=Snälla Du
TTITLE4=Röja Bland Minnen
TTITLE5=Hem Igen
TTITLE6=Idealisten
TTITLE7=Efter Alla Dessa År
TTITLE8=Förväntans Aveny
TTITLE9=Känslornas Duell
TTITLE10=Gamla Spår
EXTD=
EXTT0=
EXTT1=
EXTT2=
EXTT3=
EXTT4=
EXTT5=
EXTT6=
EXTT7=
EXTT8=
EXTT9=
EXTT10=
PLAYORDER=
